<svg width="1280" height="260" viewBox="0 0 1280 260" fill="none" xmlns="http://www.w3.org/2000/svg">
  <defs>
    <linearGradient id="pm-bg" x1="16" y1="14" x2="196" y2="202" gradientUnits="userSpaceOnUse">
      <stop offset="0%" stop-color="#173EA8"/>
      <stop offset="55%" stop-color="#0F8F79"/>
      <stop offset="100%" stop-color="#F08A2E"/>
    </linearGradient>
    <linearGradient id="pm-path" x1="67" y1="65" x2="156" y2="135" gradientUnits="userSpaceOnUse">
      <stop offset="0%" stop-color="#1C4ED8"/>
      <stop offset="100%" stop-color="#F08A2E"/>
    </linearGradient>
    <linearGradient id="word-gradient" x1="252" y1="66" x2="1020" y2="184" gradientUnits="userSpaceOnUse">
      <stop offset="0%" stop-color="#13233C"/>
      <stop offset="48%" stop-color="#173EA8"/>
      <stop offset="78%" stop-color="#0F8F79"/>
      <stop offset="100%" stop-color="#D8741A"/>
    </linearGradient>
  </defs>

  <rect x="10" y="10" width="190" height="190" rx="44" fill="#09111F"/>
  <rect x="22" y="22" width="166" height="166" rx="36" fill="url(#pm-bg)"/>
  <path d="M68 46H123L156 79V146C156 154.837 148.837 162 140 162H68C59.1634 162 52 154.837 52 146V62C52 53.1634 59.1634 46 68 46Z" fill="white"/>
  <path d="M123 46V69C123 75.6274 128.373 81 135 81H156L123 46Z" fill="#DCE6FA"/>
  <path d="M72 78H116" stroke="#C6D2EA" stroke-width="7" stroke-linecap="round"/>
  <path d="M72 95H111" stroke="#D8E1F2" stroke-width="7" stroke-linecap="round"/>
  <circle cx="80" cy="112" r="14" fill="#0F8F79"/>
  <circle cx="107" cy="108" r="11" fill="#1C4ED8"/>
  <circle cx="130" cy="128" r="14" fill="#F08A2E"/>
  <path d="M80 112L107 108L130 128" stroke="url(#pm-path)" stroke-width="8" stroke-linecap="round" stroke-linejoin="round"/>
  <path d="M124 120L140 123L135 139" stroke="#B55216" stroke-width="5" stroke-linecap="round" stroke-linejoin="round"/>

  <text
    x="245"
    y="150"
    fill="url(#word-gradient)"
    font-family="Manrope, Avenir Next, Segoe UI, Arial, sans-serif"
    font-size="126"
    font-weight="800"
    letter-spacing="-0.05em"
  >
    PaperRelay
  </text>
  <path d="M252 184H506" stroke="#13233C" stroke-width="10" stroke-linecap="round" opacity="0.12"/>
  <circle cx="534" cy="184" r="8" fill="#173EA8"/>
  <path d="M550 184H648" stroke="#173EA8" stroke-width="8" stroke-linecap="round" opacity="0.65"/>
  <circle cx="670" cy="184" r="9" fill="#0F8F79"/>
  <path d="M689 184H776" stroke="#0F8F79" stroke-width="8" stroke-linecap="round" opacity="0.65"/>
  <circle cx="798" cy="184" r="10" fill="#F08A2E"/>
  <text
    x="252"
    y="222"
    fill="#5E718F"
    font-family="Manrope, Avenir Next, Segoe UI, Arial, sans-serif"
    font-size="28"
    font-weight="700"
    letter-spacing="0.18em"
  >
    DISTILL • EXPLAIN • RELAY
  </text>
</svg>
